<mxfile host="app.diagrams.net" modified="2022-07-18T07:38:05.917Z" agent="5.0 (Macintosh; Intel Mac OS X 10_15_7) AppleWebKit/537.36 (KHTML, like Gecko) Chrome/103.0.0.0 Safari/537.36" etag="HLx00_gxIO5wcq8wCliQ" version="20.1.1" type="github">
  <diagram id="fi-OBeDVoVyC95V5E4uT" name="Page-1">
    <mxGraphModel dx="1854" dy="2370" grid="1" gridSize="10" guides="1" tooltips="1" connect="1" arrows="1" fold="1" page="1" pageScale="1" pageWidth="827" pageHeight="1169" math="0" shadow="0">
      <root>
        <mxCell id="0" />
        <mxCell id="1" parent="0" />
        <mxCell id="0UfKBpmWMLKohGauaPTg-15" value="" style="edgeStyle=orthogonalEdgeStyle;rounded=0;orthogonalLoop=1;jettySize=auto;html=1;" edge="1" parent="1" source="0UfKBpmWMLKohGauaPTg-13" target="0UfKBpmWMLKohGauaPTg-14">
          <mxGeometry relative="1" as="geometry" />
        </mxCell>
        <mxCell id="0UfKBpmWMLKohGauaPTg-13" value="thread()" style="rounded=1;whiteSpace=wrap;html=1;" vertex="1" parent="1">
          <mxGeometry x="382" y="-301" width="120" height="60" as="geometry" />
        </mxCell>
        <mxCell id="0UfKBpmWMLKohGauaPTg-22" value="" style="edgeStyle=orthogonalEdgeStyle;rounded=0;orthogonalLoop=1;jettySize=auto;html=1;" edge="1" parent="1" source="0UfKBpmWMLKohGauaPTg-14" target="0UfKBpmWMLKohGauaPTg-21">
          <mxGeometry relative="1" as="geometry" />
        </mxCell>
        <mxCell id="0UfKBpmWMLKohGauaPTg-14" value="setThreadName()" style="rounded=1;whiteSpace=wrap;html=1;" vertex="1" parent="1">
          <mxGeometry x="382" y="-161" width="120" height="60" as="geometry" />
        </mxCell>
        <mxCell id="0UfKBpmWMLKohGauaPTg-26" style="edgeStyle=orthogonalEdgeStyle;rounded=0;orthogonalLoop=1;jettySize=auto;html=1;exitX=0;exitY=0.5;exitDx=0;exitDy=0;" edge="1" parent="1" source="0UfKBpmWMLKohGauaPTg-16">
          <mxGeometry relative="1" as="geometry">
            <mxPoint x="442" y="-40" as="targetPoint" />
            <Array as="points">
              <mxPoint x="320" y="290" />
              <mxPoint x="320" y="-40" />
            </Array>
          </mxGeometry>
        </mxCell>
        <mxCell id="0UfKBpmWMLKohGauaPTg-16" value="excuteTaskQueue" style="rounded=1;whiteSpace=wrap;html=1;" vertex="1" parent="1">
          <mxGeometry x="382" y="260" width="120" height="60" as="geometry" />
        </mxCell>
        <mxCell id="0UfKBpmWMLKohGauaPTg-18" value="" style="group" vertex="1" connectable="0" parent="1">
          <mxGeometry x="860" y="100" width="404" height="270" as="geometry" />
        </mxCell>
        <mxCell id="0UfKBpmWMLKohGauaPTg-11" value="" style="rounded=1;whiteSpace=wrap;html=1;" vertex="1" parent="0UfKBpmWMLKohGauaPTg-18">
          <mxGeometry width="404" height="270" as="geometry" />
        </mxCell>
        <mxCell id="0UfKBpmWMLKohGauaPTg-1" value="Runloop" style="rounded=1;whiteSpace=wrap;html=1;" vertex="1" parent="0UfKBpmWMLKohGauaPTg-18">
          <mxGeometry x="30" y="30" width="120" height="60" as="geometry" />
        </mxCell>
        <mxCell id="0UfKBpmWMLKohGauaPTg-8" style="edgeStyle=orthogonalEdgeStyle;rounded=0;orthogonalLoop=1;jettySize=auto;html=1;entryX=0.5;entryY=1;entryDx=0;entryDy=0;" edge="1" parent="0UfKBpmWMLKohGauaPTg-18" source="0UfKBpmWMLKohGauaPTg-2" target="0UfKBpmWMLKohGauaPTg-1">
          <mxGeometry relative="1" as="geometry">
            <Array as="points">
              <mxPoint x="290" y="150" />
              <mxPoint x="90" y="150" />
            </Array>
          </mxGeometry>
        </mxCell>
        <mxCell id="0UfKBpmWMLKohGauaPTg-9" value="1/n" style="edgeLabel;html=1;align=center;verticalAlign=middle;resizable=0;points=[];" vertex="1" connectable="0" parent="0UfKBpmWMLKohGauaPTg-8">
          <mxGeometry x="-0.8267" y="1" relative="1" as="geometry">
            <mxPoint x="9" as="offset" />
          </mxGeometry>
        </mxCell>
        <mxCell id="0UfKBpmWMLKohGauaPTg-2" value="string" style="rounded=1;whiteSpace=wrap;html=1;" vertex="1" parent="0UfKBpmWMLKohGauaPTg-18">
          <mxGeometry x="230" y="30" width="120" height="60" as="geometry" />
        </mxCell>
        <mxCell id="0UfKBpmWMLKohGauaPTg-3" value="" style="edgeStyle=orthogonalEdgeStyle;rounded=0;orthogonalLoop=1;jettySize=auto;html=1;" edge="1" parent="0UfKBpmWMLKohGauaPTg-18" source="0UfKBpmWMLKohGauaPTg-1" target="0UfKBpmWMLKohGauaPTg-2">
          <mxGeometry relative="1" as="geometry" />
        </mxCell>
        <mxCell id="0UfKBpmWMLKohGauaPTg-10" value="1/n" style="edgeLabel;html=1;align=center;verticalAlign=middle;resizable=0;points=[];" vertex="1" connectable="0" parent="0UfKBpmWMLKohGauaPTg-3">
          <mxGeometry y="-1" relative="1" as="geometry">
            <mxPoint y="-11" as="offset" />
          </mxGeometry>
        </mxCell>
        <mxCell id="0UfKBpmWMLKohGauaPTg-6" value="func" style="rounded=1;whiteSpace=wrap;html=1;" vertex="1" parent="0UfKBpmWMLKohGauaPTg-18">
          <mxGeometry x="230" y="190" width="120" height="60" as="geometry" />
        </mxCell>
        <mxCell id="0UfKBpmWMLKohGauaPTg-7" value="" style="edgeStyle=orthogonalEdgeStyle;rounded=0;orthogonalLoop=1;jettySize=auto;html=1;" edge="1" parent="0UfKBpmWMLKohGauaPTg-18" source="0UfKBpmWMLKohGauaPTg-2" target="0UfKBpmWMLKohGauaPTg-6">
          <mxGeometry relative="1" as="geometry" />
        </mxCell>
        <mxCell id="0UfKBpmWMLKohGauaPTg-12" value="RunloopMsgCenter" style="text;html=1;strokeColor=none;fillColor=none;align=center;verticalAlign=middle;whiteSpace=wrap;rounded=0;" vertex="1" parent="0UfKBpmWMLKohGauaPTg-18">
          <mxGeometry x="40" y="200" width="60" height="30" as="geometry" />
        </mxCell>
        <mxCell id="0UfKBpmWMLKohGauaPTg-40" value="" style="edgeStyle=orthogonalEdgeStyle;rounded=0;orthogonalLoop=1;jettySize=auto;html=1;" edge="1" parent="1" source="0UfKBpmWMLKohGauaPTg-21" target="0UfKBpmWMLKohGauaPTg-28">
          <mxGeometry relative="1" as="geometry" />
        </mxCell>
        <mxCell id="0UfKBpmWMLKohGauaPTg-42" value="" style="edgeStyle=orthogonalEdgeStyle;rounded=0;orthogonalLoop=1;jettySize=auto;html=1;" edge="1" parent="1" source="0UfKBpmWMLKohGauaPTg-21" target="0UfKBpmWMLKohGauaPTg-27">
          <mxGeometry relative="1" as="geometry" />
        </mxCell>
        <mxCell id="0UfKBpmWMLKohGauaPTg-21" value="stop_on_runloop_thread&lt;br&gt;|| stop_?" style="rhombus;whiteSpace=wrap;html=1;" vertex="1" parent="1">
          <mxGeometry x="347" y="10" width="190" height="80" as="geometry" />
        </mxCell>
        <mxCell id="0UfKBpmWMLKohGauaPTg-27" value="destroy" style="rounded=1;whiteSpace=wrap;html=1;" vertex="1" parent="1">
          <mxGeometry x="620" y="25" width="80" height="50" as="geometry" />
        </mxCell>
        <mxCell id="0UfKBpmWMLKohGauaPTg-41" value="" style="edgeStyle=orthogonalEdgeStyle;rounded=0;orthogonalLoop=1;jettySize=auto;html=1;" edge="1" parent="1" source="0UfKBpmWMLKohGauaPTg-28" target="0UfKBpmWMLKohGauaPTg-16">
          <mxGeometry relative="1" as="geometry" />
        </mxCell>
        <mxCell id="0UfKBpmWMLKohGauaPTg-28" value="timer?&lt;br&gt;timer.wait(timeout)&lt;br&gt;timer.next_time+=interval" style="rounded=1;whiteSpace=wrap;html=1;" vertex="1" parent="1">
          <mxGeometry x="363" y="140" width="158" height="60" as="geometry" />
        </mxCell>
        <mxCell id="0UfKBpmWMLKohGauaPTg-44" value="" style="edgeStyle=orthogonalEdgeStyle;rounded=0;orthogonalLoop=1;jettySize=auto;html=1;" edge="1" parent="1" source="0UfKBpmWMLKohGauaPTg-43" target="0UfKBpmWMLKohGauaPTg-28">
          <mxGeometry relative="1" as="geometry" />
        </mxCell>
        <mxCell id="0UfKBpmWMLKohGauaPTg-43" value="AddTimer&lt;br&gt;RemoveTimer" style="ellipse;whiteSpace=wrap;html=1;" vertex="1" parent="1">
          <mxGeometry x="560" y="140" width="110" height="60" as="geometry" />
        </mxCell>
        <mxCell id="0UfKBpmWMLKohGauaPTg-51" style="edgeStyle=orthogonalEdgeStyle;rounded=0;orthogonalLoop=1;jettySize=auto;html=1;entryX=1;entryY=0;entryDx=0;entryDy=0;" edge="1" parent="1" source="0UfKBpmWMLKohGauaPTg-45" target="0UfKBpmWMLKohGauaPTg-21">
          <mxGeometry relative="1" as="geometry">
            <Array as="points">
              <mxPoint x="490" y="-10" />
            </Array>
          </mxGeometry>
        </mxCell>
        <mxCell id="0UfKBpmWMLKohGauaPTg-45" value="Stop()" style="ellipse;whiteSpace=wrap;html=1;" vertex="1" parent="1">
          <mxGeometry x="530" y="-40" width="90" height="60" as="geometry" />
        </mxCell>
        <mxCell id="0UfKBpmWMLKohGauaPTg-48" style="edgeStyle=orthogonalEdgeStyle;rounded=0;orthogonalLoop=1;jettySize=auto;html=1;" edge="1" parent="1" source="0UfKBpmWMLKohGauaPTg-46" target="0UfKBpmWMLKohGauaPTg-16">
          <mxGeometry relative="1" as="geometry" />
        </mxCell>
        <mxCell id="0UfKBpmWMLKohGauaPTg-46" value="Post()" style="ellipse;whiteSpace=wrap;html=1;" vertex="1" parent="1">
          <mxGeometry x="560" y="260" width="90" height="60" as="geometry" />
        </mxCell>
      </root>
    </mxGraphModel>
  </diagram>
</mxfile>
